# xmcd
#
# Track frame offsets: 
#        150
#        27101
#        46506
#        70162
#        92275
#        114728
#        138381
#        160382
#        187234
#        207453
#        229068
#        248804
#        267676
#
# Disc length: 3839 seconds
#
# Revision: 0
# Processed by: cddbd v1.5.2PL0 Copyright (c) Steve Scherf et al.
# Submitted via: ExactAudioCopyFreeDBPlugin 1.0
#
DISCID=b70efd0d
DTITLE=Extra Large - Songs From Back In The Day
DYEAR=1900
DGENRE=Soul
TTITLE0=Dance To The Spin
TTITLE1=I Got Time
TTITLE2=Never Gonna Stop
TTITLE3=Funky Mambo
TTITLE4=Party Line
TTITLE5=Momma Likes It Like That
TTITLE6=Mija
TTITLE7=Sweet Soul Symphony
TTITLE8=Chess Game
TTITLE9=One People
TTITLE10=Tomorrow
TTITLE11=Try
TTITLE12=Happy
EXTD=
EXTT0=
EXTT1=
EXTT2=
EXTT3=
EXTT4=
EXTT5=
EXTT6=
EXTT7=
EXTT8=
EXTT9=
EXTT10=
EXTT11=
EXTT12=
PLAYORDER=
